<?xml version="1.0" encoding="utf-8"?>
<!-- Generator: Adobe Illustrator 22.1.0, SVG Export Plug-In . SVG Version: 6.00 Build 0)  -->
<svg version="1.1" id="Layer_1" xmlns="http://www.w3.org/2000/svg" xmlns:xlink="http://www.w3.org/1999/xlink" x="0px" y="0px"
	 viewBox="0 0 8 8" style="enable-background:new 0 0 8 8;" xml:space="preserve">
<style type="text/css">
	.st0{fill:#FFFFFF;}
</style>
<path class="st0" d="M3.5,0C1.6,0,0,1.6,0,3.5S1.6,7,3.5,7c0.6,0,1.2-0.1,1.7-0.4c0,0,0.1,0.1,0.1,0.1l1,1c0.4,0.4,1,0.5,1.4,0.1
	c0.4-0.4,0.5-1,0.1-1.4c0,0-0.1-0.1-0.1-0.1l-1-1c0,0-0.1-0.1-0.2-0.1C6.8,4.7,7,4.1,7,3.5C7,1.6,5.4,0,3.5,0L3.5,0z M3.5,1
	C4.9,1,6,2.1,6,3.5c0,0.7-0.2,1.3-0.7,1.7c0,0,0,0,0,0c0,0-0.1,0.1-0.1,0.1C4.7,5.8,4.1,6,3.5,6C2.1,6,1,4.9,1,3.5S2.1,1,3.5,1
	L3.5,1z"/>
</svg>
